<svg width="24" height="24" viewBox="0 0 24 24" fill="none" xmlns="http://www.w3.org/2000/svg">
<path d="M21 16.5C21 16.9062 20.8281 17.2031 20.4844 17.3906L12.5625 21.7969C12.4062 21.9219 12.2188 21.9844 12 21.9844C11.7812 21.9844 11.5938 21.9219 11.4375 21.7969L3.51562 17.3906C3.17188 17.2031 3 16.9062 3 16.5V7.5C3 7.09375 3.17188 6.79688 3.51562 6.60938L11.4375 2.20312C11.5938 2.07812 11.7812 2.01562 12 2.01562C12.2188 2.01562 12.4062 2.07812 12.5625 2.20312L20.4844 6.60938C20.8281 6.79688 21 7.09375 21 7.5V16.5ZM12 4.17188L10.125 5.20312L15.9844 8.625L17.9531 7.5L12 4.17188ZM6.04688 7.5L12 10.8281L13.9688 9.75L8.0625 6.32812L6.04688 7.5ZM5.01562 15.8906L11.0156 19.3125V12.5625L5.01562 9.1875V15.8906ZM18.9844 15.8906V9.1875L12.9844 12.5625V19.3125L18.9844 15.8906Z" fill="white"/>
</svg>
