<svg width="25" height="24" viewBox="0 0 25 24" fill="none" xmlns="http://www.w3.org/2000/svg">
<path d="M12.9688 15.5156C12 15.5156 11.1719 15.1719 10.4844 14.4844C9.79692 13.7969 9.45317 12.9688 9.45317 12C9.45317 11.0312 9.79692 10.2031 10.4844 9.51562C11.1719 8.82812 12 8.48438 12.9688 8.48438C13.9375 8.48438 14.7657 8.82812 15.4532 9.51562C16.1407 10.2031 16.4844 11.0312 16.4844 12C16.4844 12.9688 16.1407 13.7969 15.4532 14.4844C14.7657 15.1719 13.9375 15.5156 12.9688 15.5156ZM20.4219 12.9844C20.4532 12.6094 20.4688 12.2812 20.4688 12C20.4688 11.7188 20.4532 11.3906 20.4219 11.0156L22.5313 9.375C22.6251 9.28125 22.6797 9.17969 22.6954 9.07031C22.711 8.96094 22.6876 8.84375 22.6251 8.71875L20.6094 5.25C20.5782 5.15625 20.5 5.08594 20.375 5.03906C20.25 4.99219 20.125 5 20 5.0625L17.5157 6.04688C16.9532 5.60938 16.3907 5.28125 15.8282 5.0625L15.4532 2.4375C15.4532 2.3125 15.4063 2.21094 15.3126 2.13281C15.2188 2.05469 15.1094 2.01562 14.9844 2.01562H10.9532C10.8282 2.01562 10.7188 2.05469 10.625 2.13281C10.5313 2.21094 10.4844 2.3125 10.4844 2.4375L10.1094 5.0625C9.54692 5.28125 8.98442 5.60938 8.42192 6.04688L5.93755 5.0625C5.81255 5 5.68755 4.99219 5.56255 5.03906C5.43755 5.08594 5.35942 5.15625 5.32817 5.25L3.31255 8.71875C3.25005 8.84375 3.22661 8.96094 3.24224 9.07031C3.25786 9.17969 3.31255 9.28125 3.4063 9.375L5.51567 11.0156C5.48442 11.3906 5.4688 11.7188 5.4688 12C5.4688 12.2812 5.48442 12.6094 5.51567 12.9844L3.4063 14.625C3.31255 14.7188 3.25786 14.8203 3.24224 14.9297C3.22661 15.0391 3.25005 15.1562 3.31255 15.2812L5.32817 18.75C5.35942 18.8438 5.43755 18.9141 5.56255 18.9609C5.68755 19.0078 5.81255 19 5.93755 18.9375L8.42192 17.9531C8.98442 18.3906 9.54692 18.7188 10.1094 18.9375L10.4844 21.5625C10.4844 21.6875 10.5313 21.7891 10.625 21.8672C10.7188 21.9453 10.8282 21.9844 10.9532 21.9844H14.9844C15.1094 21.9844 15.2188 21.9453 15.3126 21.8672C15.4063 21.7891 15.4532 21.6875 15.4532 21.5625L15.8282 18.9375C16.4219 18.6875 16.9844 18.3594 17.5157 17.9531L20 18.9375C20.125 19 20.25 19.0078 20.375 18.9609C20.5 18.9141 20.5782 18.8438 20.6094 18.75L22.6251 15.2812C22.6876 15.1562 22.711 15.0391 22.6954 14.9297C22.6797 14.8203 22.6251 14.7188 22.5313 14.625L20.4219 12.9844Z" fill="#3ABBB3"/>
</svg>
