<svg width="24" height="24" viewBox="0 0 24 24" fill="none" xmlns="http://www.w3.org/2000/svg">
<path d="M18 15H15.9844V17.0156H18V15ZM18 11.0156H15.9844V12.9844H18V11.0156ZM20.0156 18.9844H12V17.0156H14.0156V15H12V12.9844H14.0156V11.0156H12V9H20.0156V18.9844ZM9.98438 6.98438H8.01562V5.01562H9.98438V6.98438ZM9.98438 11.0156H8.01562V9H9.98438V11.0156ZM9.98438 15H8.01562V12.9844H9.98438V15ZM9.98438 18.9844H8.01562V17.0156H9.98438V18.9844ZM6 6.98438H3.98438V5.01562H6V6.98438ZM6 11.0156H3.98438V9H6V11.0156ZM6 15H3.98438V12.9844H6V15ZM6 18.9844H3.98438V17.0156H6V18.9844ZM12 6.98438V3H2.01562V21H21.9844V6.98438H12Z" fill="white"/>
</svg>
