<svg width="24" height="20" viewBox="0 0 24 20" fill="none" xmlns="http://www.w3.org/2000/svg">
<g clip-path="url(#clip0_17_952)">
<path d="M1.88252 14.885C1.96877 15.2037 2.29877 15.395 2.61752 15.3087L10.7325 13.1337C11.0513 13.0475 11.2425 12.7175 11.1563 12.3987L9.29252 5.44249C9.20627 5.12374 8.87627 4.93249 8.55752 5.01874L5.66252 5.79874L6.59252 9.27499L4.27502 9.89374L3.34502 6.41749L0.44627 7.19374C0.12752 7.27999 -0.0637295 7.60999 0.0225205 7.92874L1.88252 14.885ZM14.4 0.799988C13.7363 0.799988 13.2 1.33624 13.2 1.99999V14.135L0.221271 17.675C0.0600205 17.72 -0.0337295 17.885 0.0112705 18.0425L0.48377 19.7787C0.52877 19.94 0.693771 20.0337 0.85127 19.9887L15.615 15.9612C15.705 18.2037 17.535 20 19.8 20C22.1213 20 24 18.1212 24 15.8V0.799988H14.4ZM19.8 17.6C18.8063 17.6 18 16.7937 18 15.8C18 14.8062 18.8063 14 19.8 14C20.7938 14 21.6 14.8062 21.6 15.8C21.6 16.7937 20.7938 17.6 19.8 17.6Z" fill="#F8F8F8"/>
</g>
<defs>
<clipPath id="clip0_17_952">
<rect width="24" height="19.2" fill="white" transform="translate(0 0.799988)"/>
</clipPath>
</defs>
</svg>
