<svg width="24" height="24" viewBox="0 0 24 24" fill="none" xmlns="http://www.w3.org/2000/svg">
<path d="M21.6875 20.2969L20.2812 21.7031C20.0938 21.8906 19.8594 21.9844 19.5781 21.9844C19.2969 21.9844 19.0625 21.8906 18.875 21.7031L6.96875 9.84375C6.65625 9.9375 6.32812 9.98438 5.98438 9.98438C5.32812 9.98438 4.71875 9.83594 4.15625 9.53906C3.59375 9.24219 3.125 8.83594 2.75 8.32031C2.375 7.80469 2.14062 7.22656 2.04688 6.58594C1.95312 5.94531 2 5.3125 2.1875 4.6875L4.76562 7.21875L7.20312 4.78125L4.67188 2.20312C5.29688 2.01562 5.92969 1.96875 6.57031 2.0625C7.21094 2.15625 7.78906 2.39062 8.30469 2.76562C8.82031 3.14062 9.22656 3.60938 9.52344 4.17188C9.82031 4.73438 9.96875 5.34375 9.96875 6C9.96875 6.34375 9.92188 6.67188 9.82812 6.98438L21.6875 18.8906C21.875 19.0781 21.9688 19.3125 21.9688 19.5938C21.9688 19.875 21.875 20.1094 21.6875 20.2969ZM2.28125 18.8906C2.09375 19.0781 2 19.3125 2 19.5938C2 19.875 2.09375 20.1094 2.28125 20.2969L3.6875 21.7031C3.875 21.8906 4.10938 21.9844 4.39062 21.9844C4.67188 21.9844 4.90625 21.8906 5.09375 21.7031L10.5781 16.2656L7.76562 13.4062L2.28125 18.8906ZM20 2.01562L15.9688 3.98438V6L13.8125 8.15625L15.8281 10.1719L17.9844 8.01562H20L21.9688 3.98438L20 2.01562Z" fill="white"/>
</svg>
