<svg width="24" height="31" viewBox="0 0 24 31" fill="none" xmlns="http://www.w3.org/2000/svg">
<g filter="url(#filter0_d_42_2944)">
<path d="M14 3.40002V7.40002C14 7.66524 14.1054 7.91959 14.2929 8.10713C14.4804 8.29467 14.7348 8.40002 15 8.40002H19M14 3.40002H7C6.46957 3.40002 5.96086 3.61074 5.58579 3.98581C5.21071 4.36088 5 4.86959 5 5.40002V19.4C5 19.9305 5.21071 20.4392 5.58579 20.8142C5.96086 21.1893 6.46957 21.4 7 21.4H17C17.5304 21.4 18.0391 21.1893 18.4142 20.8142C18.7893 20.4392 19 19.9305 19 19.4V8.40002M14 3.40002L19 8.40002M9 17.4V12.4M12 17.4V16.4M15 17.4V14.4" stroke="black" stroke-width="2" stroke-linecap="round" stroke-linejoin="round"/>
</g>
<defs>
<filter id="filter0_d_42_2944" x="-4" y="0.400024" width="32" height="32" filterUnits="userSpaceOnUse" color-interpolation-filters="sRGB">
<feFlood flood-opacity="0" result="BackgroundImageFix"/>
<feColorMatrix in="SourceAlpha" type="matrix" values="0 0 0 0 0 0 0 0 0 0 0 0 0 0 0 0 0 0 127 0" result="hardAlpha"/>
<feOffset dy="4"/>
<feGaussianBlur stdDeviation="2"/>
<feComposite in2="hardAlpha" operator="out"/>
<feColorMatrix type="matrix" values="0 0 0 0 0 0 0 0 0 0 0 0 0 0 0 0 0 0 0.25 0"/>
<feBlend mode="normal" in2="BackgroundImageFix" result="effect1_dropShadow_42_2944"/>
<feBlend mode="normal" in="SourceGraphic" in2="effect1_dropShadow_42_2944" result="shape"/>
</filter>
</defs>
</svg>
