<svg width="24" height="25" viewBox="0 0 24 25" fill="none" xmlns="http://www.w3.org/2000/svg">
<path d="M12 17.4L10 19.4M10 19.4L12 21.4M10 19.4H19C19.3186 19.3836 19.6287 19.2912 19.9043 19.1305C20.1799 18.9699 20.4131 18.7456 20.5843 18.4764C20.7556 18.2073 20.86 17.9011 20.8888 17.5833C20.9177 17.2656 20.8701 16.9456 20.75 16.65L20.2 15.65M8.53578 11.4001L7.80378 8.66809M7.80378 8.66809L5.07178 9.40009M7.80378 8.66809L3.30399 16.4621C3.15903 16.7462 3.0841 17.0608 3.08547 17.3797C3.08683 17.6986 3.16444 18.0126 3.31182 18.2954C3.4592 18.5782 3.67208 18.8217 3.9327 19.0055C4.19331 19.1893 4.49411 19.3082 4.80999 19.3521L5.95099 19.3761M15.4639 11.4L18.1959 12.132M18.1959 12.132L18.9279 9.40002M18.1959 12.132L13.6961 4.33809C13.5225 4.07052 13.2875 3.84836 13.0105 3.69013C12.7336 3.53189 12.4229 3.44218 12.1042 3.42848C11.7856 3.41478 11.4683 3.47749 11.1788 3.61136C10.8893 3.74524 10.636 3.94641 10.4401 4.19809L9.84912 5.17409" stroke="black" stroke-width="2" stroke-linecap="round" stroke-linejoin="round"/>
</svg>
