<svg width="24" height="25" viewBox="0 0 24 25" fill="none" xmlns="http://www.w3.org/2000/svg">
<path d="M1.38049 20.6978L7.40853 24.2001L16.4674 19.0814L8.19992 16.7745L1.38049 20.6978Z" fill="#4D1EBC"/>
<path d="M20.1915 15.3818C18.1391 18.2708 14.7859 20.9276 12.289 19.8294C11.9947 19.6999 11.7326 19.5473 11.5004 19.3742C10.3854 18.5431 9.95859 17.2411 9.9489 15.7739C9.93814 14.1437 10.4423 12.3095 11.0899 10.6905C11.6299 9.34053 13.8647 5.93813 16.5581 4.46509C17.7878 3.79258 19.2649 3.52824 20.5681 4.03894C23.7725 5.78439 22.813 11.6917 20.1915 15.3818Z" fill="#8652FF"/>
<path d="M14.3926 0.495807C10.2351 -1.13351 6.57152 4.50215 6.57152 4.50215C4.88269 6.6288 4.25931 9.22503 4.06955 10.1315C3.78804 11.4764 3.82427 13.4949 4.51812 14.7073L4.78923 15.1979L5.18854 15.6393L5.63689 15.9895L11.5004 19.3742C10.3854 18.5431 9.95859 17.2411 9.9489 15.7739C9.93814 14.1437 10.4423 12.3095 11.0899 10.6905C11.6299 9.34053 13.8647 5.93813 16.5581 4.46509C17.7878 3.79258 19.2649 3.52824 20.5681 4.03894L15.237 0.951287L14.3926 0.495807Z" fill="#8652FF"/>
<path d="M20.2182 15.3818C18.1658 18.2708 14.8126 20.9276 12.3158 19.8294C12.0214 19.6999 11.7593 19.5473 11.5271 19.3742C10.4122 18.5431 9.98532 17.2411 9.97563 15.7739C9.96487 14.1437 10.4691 12.3095 11.1166 10.6906C11.6566 9.34053 13.8915 5.93814 16.5849 4.4651C17.8145 3.79258 19.2916 3.52824 20.5948 4.03895C23.7993 5.7844 22.8397 11.6918 20.2182 15.3818Z" fill="#4D1EBC"/>
<path opacity="0.8" d="M18.4177 13.7529C17.2938 15.3348 15.4577 16.7897 14.0905 16.1883C12.2955 15.3988 12.6936 13.0346 13.4338 11.184C13.8645 10.1073 16.2642 6.64624 18.5408 7.53843C20.3993 8.26677 19.8532 11.7323 18.4177 13.7529Z" fill="#EFF1FA"/>
<path d="M17.8904 13.2885C17.0422 14.4825 15.6564 15.5805 14.6244 15.1267C13.2697 14.5308 13.5702 12.7464 14.1289 11.3497C14.4539 10.537 16.265 7.92478 17.9833 8.59816C19.386 9.14788 18.9739 11.7635 17.8904 13.2885Z" fill="#EFF1FA"/>
</svg>
