<svg width="24" height="25" viewBox="0 0 24 25" fill="none" xmlns="http://www.w3.org/2000/svg">
<path d="M13 1.20001C13.5046 1.19985 13.9906 1.39042 14.3605 1.73351C14.7305 2.0766 14.9572 2.54686 14.995 3.05001L15 3.20001V3.70001C15 5.01701 15.381 6.30401 16.094 7.40501L16.264 7.65501L16.314 7.72701C17.3409 9.16856 17.9248 10.8785 17.994 12.647L18 13.001V19.2C18 19.9652 17.7077 20.7015 17.1827 21.2583C16.6578 21.815 15.9399 22.1501 15.176 22.195L15 22.2H9C8.23479 22.2001 7.49849 21.9077 6.94174 21.3827C6.38499 20.8578 6.04989 20.1399 6.005 19.376L6 19.2V13C6.00033 11.2302 6.51674 9.49884 7.486 8.01801L7.686 7.72601L7.736 7.65701C8.55837 6.50145 9.00018 5.11833 9 3.70001V3.20001C8.99984 2.69544 9.19041 2.20945 9.5335 1.83946C9.87659 1.46948 10.3468 1.24286 10.85 1.20501L11 1.20001H13ZM13.362 6.20001H10.638C10.3939 7.02656 10.03 7.81291 9.558 8.53401L9.364 8.81801L9.314 8.88701C8.52139 10.0006 8.06751 11.3195 8.007 12.685L8.004 12.81C8.58096 12.4023 9.27263 12.1887 9.979 12.2C10.5308 12.1885 11.077 12.3116 11.5706 12.5584C12.0642 12.8053 12.4902 13.1686 12.812 13.617C13.082 13.992 13.518 14.21 14.021 14.2C14.2481 14.2047 14.4729 14.1541 14.676 14.0525C14.8791 13.9509 15.0545 13.8015 15.187 13.617C15.4101 13.3067 15.684 13.0363 15.997 12.817L16 13C16 11.63 15.604 10.293 14.863 9.14801L14.635 8.81601C14.0689 8.02042 13.6387 7.13642 13.362 6.20001Z" fill="black"/>
</svg>
