<svg width="24" height="25" viewBox="0 0 24 25" fill="none" xmlns="http://www.w3.org/2000/svg">
<path d="M13.9051 3.12294L14.0031 3.25794L18.9231 10.5639C19.5019 11.5289 19.8582 12.6108 19.9661 13.7309L19.9901 14.0569C19.9971 14.1039 20.0001 14.1509 20.0001 14.1999L19.9981 14.2599C20.0541 16.5599 19.0541 18.8419 17.1281 20.3999C14.1591 22.8019 9.84206 22.8019 6.87306 20.3999C4.96906 18.8599 3.96906 16.6129 4.00806 14.3289C3.99467 14.2179 3.99906 14.1055 4.02106 13.9959C4.09069 12.8834 4.40227 11.7996 4.93406 10.8199L5.10606 10.5179L9.99906 3.25794C10.1841 2.98294 10.4251 2.74894 10.7081 2.57194C11.7631 1.91194 13.1541 2.15894 13.9051 3.12194V3.12294ZM11.8451 4.22994L11.7681 4.26794L11.7271 4.29794L11.6901 4.33394L11.6571 4.37594L6.79406 11.5899C6.49476 12.0895 6.27513 12.6327 6.14306 13.1999H17.8661C17.76 12.743 17.5953 12.3017 17.3761 11.8869L17.2351 11.6359L12.3441 4.37494C12.2883 4.29916 12.209 4.24389 12.1186 4.21767C12.0283 4.19146 11.9317 4.19577 11.8441 4.22994H11.8451Z" fill="black"/>
</svg>
